<?xml version="1.0" encoding="utf-8"?>
<!-- Generator: Adobe Illustrator 23.0.0, SVG Export Plug-In . SVG Version: 6.00 Build 0)  -->
<svg version="1.1" id="Laag_1" xmlns="http://www.w3.org/2000/svg" xmlns:xlink="http://www.w3.org/1999/xlink" x="0px" y="0px"
	 viewBox="0 0 24 24" style="enable-background:new 0 0 24 24;" xml:space="preserve">
<style type="text/css">
	.st0{fill-rule:evenodd;clip-rule:evenodd;fill:#FFFFFF;filter:url(#Adobe_OpacityMaskFilter);}
	.st1{mask:url(#path-1-inside-1_1_);fill:#294B9B;}
</style>
<defs>
	<filter id="Adobe_OpacityMaskFilter" filterUnits="userSpaceOnUse" x="-1.5" y="0.3" width="28" height="20.5">
		<feColorMatrix  type="matrix" values="1 0 0 0 0  0 1 0 0 0  0 0 1 0 0  0 0 0 1 0"/>
	</filter>
</defs>
<mask maskUnits="userSpaceOnUse" x="-1.5" y="0.3" width="28" height="20.5" id="path-1-inside-1_1_">
	<path class="st0" d="M3.7,9.3C3.1,9.3,2.5,9,2,8.5C1.5,8,1.3,7.4,1.3,6.8C1.3,6.1,1.5,5.5,2,5s1.1-0.7,1.8-0.7S5,4.5,5.5,5
		s0.7,1.1,0.7,1.8C6.2,7.4,6,8,5.5,8.5C5,9,4.4,9.3,3.7,9.3z M21.3,9.3c-0.7,0-1.3-0.2-1.8-0.7C19,8,18.8,7.4,18.8,6.8
		c0-0.7,0.2-1.3,0.7-1.8c0.5-0.5,1.1-0.7,1.8-0.7c0.7,0,1.3,0.2,1.8,0.7c0.5,0.5,0.7,1.1,0.7,1.8c0,0.7-0.2,1.3-0.7,1.8
		C22.5,9,21.9,9.3,21.3,9.3z M22.5,10.5c0.7,0,1.3,0.2,1.8,0.7c0.5,0.5,0.7,1.1,0.7,1.8v1.3c0,0.3-0.1,0.6-0.4,0.9
		c-0.2,0.2-0.5,0.4-0.9,0.4h-2.6c-0.1-0.9-0.5-1.7-1-2.5c-0.5-0.8-1.2-1.3-2-1.8c0.5-0.5,1.1-0.7,1.8-0.7H22.5z M12.5,10.5
		c-0.8,0-1.5-0.2-2.2-0.6C9.6,9.5,9.1,9,8.7,8.3C8.3,7.6,8.1,6.9,8.1,6.1s0.2-1.5,0.6-2.2c0.4-0.7,0.9-1.2,1.6-1.6
		c0.7-0.4,1.4-0.6,2.2-0.6c0.8,0,1.5,0.2,2.2,0.6c0.7,0.4,1.2,0.9,1.6,1.6c0.4,0.7,0.6,1.4,0.6,2.2s-0.2,1.5-0.6,2.2
		c-0.4,0.7-0.9,1.2-1.6,1.6C14,10.3,13.3,10.5,12.5,10.5z M15.5,11.8c0.8,0,1.6,0.2,2.2,0.6c0.7,0.4,1.2,1,1.6,1.6
		c0.4,0.7,0.6,1.4,0.6,2.2v1.1c0,0.5-0.2,1-0.5,1.3c-0.4,0.4-0.8,0.5-1.3,0.5H6.9c-0.5,0-1-0.2-1.3-0.5C5.2,18.3,5,17.9,5,17.4v-1.1
		c0-0.8,0.2-1.6,0.6-2.2c0.4-0.7,1-1.2,1.6-1.6c0.7-0.4,1.4-0.6,2.2-0.6h0.3c0.9,0.4,1.8,0.6,2.7,0.6c0.9,0,1.8-0.2,2.7-0.6H15.5z
		 M6.8,11.2c-0.8,0.4-1.4,1-2,1.8c-0.5,0.8-0.8,1.6-1,2.5H1.3c-0.3,0-0.6-0.1-0.9-0.4C0.1,14.9,0,14.6,0,14.3V13
		c0-0.7,0.2-1.3,0.7-1.8c0.5-0.5,1.1-0.7,1.8-0.7H5C5.7,10.5,6.3,10.7,6.8,11.2z"/>
</mask>
<path class="st1" d="M21.2,15.5l-1.5,0.2l0.2,1.3h1.3V15.5z M18.2,11.2l-1.1-1.1l-1.4,1.4l1.8,1L18.2,11.2z M9.8,11.8l0.6-1.4
	l-0.3-0.1H9.8V11.8z M15.2,11.8v-1.5h-0.3l-0.3,0.1L15.2,11.8z M6.8,11.2l0.7,1.3l1.8-1l-1.4-1.4L6.8,11.2z M3.8,15.5V17h1.3
	l0.2-1.3L3.8,15.5z M3.7,7.8c-0.3,0-0.5-0.1-0.7-0.3L0.9,9.6c0.8,0.8,1.7,1.2,2.8,1.2V7.8z M3.1,7.4C2.8,7.2,2.8,7,2.8,6.8h-3
	c0,1.1,0.4,2.1,1.2,2.8L3.1,7.4z M2.8,6.8c0-0.3,0.1-0.5,0.3-0.7L0.9,3.9C0.2,4.7-0.3,5.7-0.3,6.8H2.8z M3.1,6.1
	c0.2-0.2,0.4-0.3,0.7-0.3v-3c-1.1,0-2.1,0.4-2.8,1.2L3.1,6.1z M3.7,5.8c0.3,0,0.5,0.1,0.7,0.3l2.1-2.1C5.8,3.2,4.8,2.8,3.7,2.8V5.8z
	 M4.4,6.1c0.2,0.2,0.3,0.4,0.3,0.7h3c0-1.1-0.4-2.1-1.2-2.8L4.4,6.1z M4.7,6.8c0,0.3-0.1,0.5-0.3,0.7l2.1,2.1
	c0.8-0.8,1.2-1.7,1.2-2.8H4.7z M4.4,7.4C4.2,7.7,4,7.8,3.7,7.8v3c1.1,0,2.1-0.4,2.8-1.2L4.4,7.4z M21.3,7.8c-0.3,0-0.5-0.1-0.7-0.3
	l-2.1,2.1c0.8,0.8,1.7,1.2,2.8,1.2V7.8z M20.6,7.4c-0.2-0.2-0.3-0.4-0.3-0.7h-3c0,1.1,0.4,2.1,1.2,2.8L20.6,7.4z M20.3,6.8
	c0-0.3,0.1-0.5,0.3-0.7l-2.1-2.1c-0.8,0.8-1.2,1.7-1.2,2.8H20.3z M20.6,6.1c0.2-0.2,0.4-0.3,0.7-0.3v-3c-1.1,0-2.1,0.4-2.8,1.2
	L20.6,6.1z M21.3,5.8c0.3,0,0.5,0.1,0.7,0.3l2.1-2.1c-0.8-0.8-1.7-1.2-2.8-1.2V5.8z M21.9,6.1c0.2,0.2,0.3,0.4,0.3,0.7h3
	c0-1.1-0.4-2.1-1.2-2.8L21.9,6.1z M22.2,6.8c0,0.3-0.1,0.5-0.3,0.7l2.1,2.1c0.8-0.8,1.2-1.7,1.2-2.8H22.2z M21.9,7.4
	c-0.2,0.2-0.4,0.3-0.7,0.3v3c1.1,0,2.1-0.4,2.8-1.2L21.9,7.4z M22.5,12c0.3,0,0.5,0.1,0.7,0.3l2.1-2.1C24.6,9.4,23.6,9,22.5,9V12z
	 M23.2,12.3c0.2,0.2,0.3,0.4,0.3,0.7h3c0-1.1-0.4-2.1-1.2-2.8L23.2,12.3z M23.5,13v1.3h3V13H23.5z M23.5,14.3c0,0,0-0.1,0-0.1
	c0,0,0-0.1,0-0.1l2.1,2.1c0.5-0.5,0.8-1.2,0.8-1.9H23.5z M23.6,14.1C23.6,14.1,23.6,14,23.6,14.1c0.1-0.1,0.2-0.1,0.2-0.1v3
	c0.8,0,1.4-0.3,1.9-0.8L23.6,14.1z M23.7,14h-2.6v3h2.6V14z M22.7,15.3c-0.2-1.1-0.6-2.2-1.2-3.1L19,13.9c0.4,0.6,0.6,1.2,0.7,1.9
	L22.7,15.3z M21.4,12.1c-0.7-0.9-1.5-1.7-2.5-2.2l-1.4,2.6c0.6,0.3,1,0.7,1.4,1.3L21.4,12.1z M19.3,12.3c0.2-0.2,0.4-0.3,0.7-0.3V9
	c-1.1,0-2.1,0.4-2.8,1.2L19.3,12.3z M20,12h2.5V9H20V12z M12.5,9c-0.5,0-1-0.1-1.4-0.4l-1.5,2.6c0.9,0.5,1.9,0.8,2.9,0.8V9z
	 M11.1,8.6C10.6,8.4,10.3,8,10,7.6L7.4,9.1c0.5,0.9,1.2,1.6,2.2,2.2L11.1,8.6z M10,7.6C9.8,7.1,9.6,6.6,9.6,6.1h-3
	c0,1,0.3,2,0.8,2.9L10,7.6z M9.6,6.1c0-0.5,0.1-1,0.4-1.4L7.4,3.2C6.9,4.1,6.6,5.1,6.6,6.1H9.6z M10,4.7c0.3-0.4,0.6-0.8,1.1-1.1
	L9.6,1C8.7,1.6,7.9,2.3,7.4,3.2L10,4.7z M11.1,3.6c0.4-0.3,0.9-0.4,1.4-0.4v-3c-1,0-2,0.3-2.9,0.8L11.1,3.6z M12.5,3.3
	c0.5,0,1,0.1,1.4,0.4L15.4,1c-0.9-0.5-1.9-0.8-2.9-0.8V3.3z M13.9,3.6c0.4,0.3,0.8,0.6,1.1,1.1l2.6-1.5c-0.5-0.9-1.2-1.6-2.2-2.2
	L13.9,3.6z M15,4.7c0.3,0.4,0.4,0.9,0.4,1.4h3c0-1-0.3-2-0.8-2.9L15,4.7z M15.4,6.1c0,0.5-0.1,1-0.4,1.4l2.6,1.5
	c0.5-0.9,0.8-1.9,0.8-2.9H15.4z M15,7.6c-0.3,0.4-0.6,0.8-1.1,1.1l1.5,2.6c0.9-0.5,1.6-1.2,2.2-2.2L15,7.6z M13.9,8.6
	C13.5,8.9,13,9,12.5,9v3c1,0,2-0.3,2.9-0.8L13.9,8.6z M15.5,13.3c0.5,0,1,0.1,1.5,0.4l1.5-2.6c-0.9-0.5-1.9-0.8-3-0.8V13.3z
	 M17,13.7c0.5,0.3,0.8,0.6,1.1,1.1l2.6-1.5c-0.5-0.9-1.3-1.6-2.2-2.2L17,13.7z M18.1,14.8c0.3,0.5,0.4,0.9,0.4,1.5h3
	c0-1.1-0.3-2.1-0.8-3L18.1,14.8z M18.5,16.2v1.1h3v-1.1H18.5z M18.5,17.4c0,0.1,0,0.2-0.1,0.3l2.1,2.1c0.6-0.6,1-1.5,1-2.4H18.5z
	 M18.4,17.6c-0.1,0.1-0.1,0.1-0.3,0.1v3c0.9,0,1.7-0.3,2.4-1L18.4,17.6z M18.1,17.8H6.9v3h11.3V17.8z M6.9,17.8
	c-0.1,0-0.2,0-0.3-0.1l-2.1,2.1c0.6,0.6,1.5,1,2.4,1V17.8z M6.6,17.6c-0.1-0.1-0.1-0.1-0.1-0.3h-3c0,0.9,0.3,1.7,1,2.4L6.6,17.6z
	 M6.5,17.4v-1.1h-3v1.1H6.5z M6.5,16.2c0-0.5,0.1-1,0.4-1.5l-2.6-1.5c-0.5,0.9-0.8,1.9-0.8,3H6.5z M6.9,14.8
	c0.3-0.5,0.6-0.8,1.1-1.1l-1.5-2.6c-0.9,0.5-1.6,1.3-2.2,2.2L6.9,14.8z M8,13.7c0.5-0.3,0.9-0.4,1.5-0.4v-3c-1.1,0-2.1,0.3-3,0.8
	L8,13.7z M9.5,13.3h0.3v-3H9.5V13.3z M9.2,13.1c1.1,0.5,2.2,0.8,3.3,0.8v-3c-0.7,0-1.4-0.2-2.1-0.5L9.2,13.1z M12.5,13.9
	c1.1,0,2.3-0.3,3.3-0.8l-1.3-2.7c-0.7,0.3-1.4,0.5-2.1,0.5V13.9z M15.2,13.3h0.3v-3h-0.3V13.3z M6.1,9.9c-1,0.5-1.8,1.3-2.5,2.2
	L6,13.9c0.4-0.6,0.9-1,1.4-1.3L6.1,9.9z M3.6,12.1c-0.7,0.9-1.1,2-1.2,3.1l3,0.4C5.4,15,5.7,14.4,6,13.9L3.6,12.1z M3.8,14H1.3v3
	h2.6V14z M1.3,14c0,0,0.1,0,0.1,0c0,0,0.1,0,0.1,0l-2.1,2.1c0.5,0.5,1.2,0.8,1.9,0.8V14z M1.4,14.1C1.4,14.1,1.5,14.1,1.4,14.1
	c0.1,0.1,0.1,0.2,0.1,0.2h-3c0,0.8,0.3,1.4,0.8,1.9L1.4,14.1z M1.5,14.3V13h-3v1.3H1.5z M1.5,13c0-0.3,0.1-0.5,0.3-0.7l-2.1-2.1
	c-0.8,0.8-1.2,1.7-1.2,2.8H1.5z M1.8,12.3C2,12.1,2.2,12,2.5,12V9c-1.1,0-2.1,0.4-2.8,1.2L1.8,12.3z M2.5,12H5V9H2.5V12z M5,12
	c0.3,0,0.5,0.1,0.7,0.3l2.1-2.1C7.1,9.4,6.1,9,5,9V12z"/>
</svg>
